<svg width="599" height="61" viewBox="0 0 599 61" fill="none" xmlns="http://www.w3.org/2000/svg">
<rect x="8" y="20.9819" width="582.8" height="4.63" rx="2.315" fill="#121212" fill-opacity="0.3"/>
<rect x="8" y="20.9819" width="582.8" height="4.63" rx="2.315" fill="url(#paint0_linear_0_1)"/>
<g clip-path="url(#clip0_0_1)">
<rect x="457.65" y="28.137" width="8.00001" height="8.00001" transform="rotate(45 457.65 28.137)" fill="black"/>
</g>
<path d="M424.013 56.7881V55.6328C422.386 55.4824 421.039 54.4912 420.984 52.9053V52.8984L422.174 52.8916V52.9053C422.297 53.7529 422.823 54.4297 424.013 54.5596V51.2715L423.855 51.2305C422.153 50.8203 421.237 50.0615 421.237 48.7217V48.708C421.237 47.2451 422.393 46.2471 424.013 46.0967V44.9414H424.833V46.0967C426.412 46.2402 427.636 47.2656 427.69 48.7695V48.7764L426.501 48.7832V48.7695C426.412 47.8535 425.756 47.2861 424.833 47.1699V50.3076L425.045 50.3555C426.802 50.7793 427.786 51.5039 427.786 52.9326V52.9463C427.786 54.5869 426.446 55.5098 424.833 55.6396V56.7881H424.013ZM422.427 48.6396C422.427 49.3027 422.837 49.8223 424.013 50.1094V47.1699C422.974 47.3135 422.427 47.9697 422.427 48.626V48.6396ZM424.874 51.4766L424.833 51.4697V54.5732C426.104 54.4707 426.597 53.8281 426.597 53.042V53.0283C426.597 52.2832 426.228 51.8047 424.874 51.4766ZM434.424 55.7969V53.7529H429.618V52.6318C430.951 50.3965 432.462 47.9902 433.843 45.9326H435.627V52.6523H437.028V53.7529H435.627V55.7969H434.424ZM430.876 52.6592H434.431V47.0742H434.349C433.241 48.7285 431.949 50.7656 430.876 52.5771V52.6592ZM442.299 55.9609C440.207 55.9609 438.717 54.7852 438.717 53.1309V53.1172C438.717 51.9004 439.571 50.8887 440.836 50.5947V50.5674C439.756 50.2324 439.072 49.4121 439.072 48.373V48.3594C439.072 46.8691 440.433 45.7686 442.299 45.7686C444.165 45.7686 445.525 46.8691 445.525 48.3594V48.373C445.525 49.4121 444.842 50.2324 443.762 50.5674V50.5947C445.026 50.8887 445.881 51.9004 445.881 53.1172V53.1309C445.881 54.7852 444.391 55.9609 442.299 55.9609ZM442.299 50.1094C443.488 50.1094 444.302 49.4326 444.302 48.4756V48.4619C444.302 47.5049 443.488 46.8281 442.299 46.8281C441.109 46.8281 440.296 47.5049 440.296 48.4619V48.4756C440.296 49.4326 441.109 50.1094 442.299 50.1094ZM442.299 54.8877C443.659 54.8877 444.63 54.1221 444.63 53.0557V53.042C444.63 51.9619 443.666 51.1895 442.299 51.1895C440.932 51.1895 439.968 51.9619 439.968 53.042V53.0557C439.968 54.1221 440.938 54.8877 442.299 54.8877ZM447.098 58.3057L447.692 54.416H449.053L447.979 58.3057H447.098ZM454.487 56.0293C452.683 56.0293 450.775 54.7578 450.775 51.0459V51.0322C450.775 47.6689 452.177 45.7002 454.569 45.7002C456.224 45.7002 457.454 46.6709 457.789 48.127L457.81 48.2158H456.572L456.545 48.1406C456.244 47.3135 455.554 46.8008 454.556 46.8008C452.765 46.8008 452.033 48.5508 451.958 50.6084C451.951 50.6836 451.951 50.7656 451.951 50.8408H452.081C452.443 50.0342 453.373 49.3164 454.706 49.3164C456.559 49.3164 457.939 50.7246 457.939 52.6182V52.6318C457.939 54.6006 456.477 56.0293 454.487 56.0293ZM452.245 52.6182C452.245 53.917 453.223 54.9424 454.474 54.9424C455.711 54.9424 456.702 53.9375 456.702 52.6592V52.6455C456.702 51.333 455.772 50.3896 454.494 50.3896C453.216 50.3896 452.245 51.3262 452.245 52.6113V52.6182ZM463.271 55.9609C461.234 55.9609 459.915 54.8262 459.785 53.2676L459.778 53.1855H460.961L460.968 53.2539C461.063 54.2246 461.959 54.8945 463.271 54.8945C464.563 54.8945 465.445 54.1699 465.445 53.124V53.1104C465.445 51.9004 464.577 51.2236 463.196 51.2236H461.959V50.1846H463.142C464.317 50.1846 465.138 49.46 465.138 48.4756V48.4619C465.138 47.4297 464.461 46.835 463.258 46.835C462.096 46.835 461.269 47.4502 461.166 48.4482L461.159 48.5166H459.977L459.983 48.4482C460.141 46.8418 461.412 45.7686 463.258 45.7686C465.138 45.7686 466.375 46.8145 466.375 48.3115V48.3252C466.375 49.542 465.514 50.376 464.283 50.6357V50.6631C465.719 50.7861 466.696 51.6816 466.696 53.083V53.0967C466.696 54.7441 465.247 55.9609 463.271 55.9609ZM469.103 55.7969L473.532 47.1289V47.0332H468.255V45.9326H474.783V47.0742L470.395 55.7969H469.103ZM476.137 55.8652C475.651 55.8652 475.248 55.4619 475.248 54.9766C475.248 54.4844 475.651 54.0879 476.137 54.0879C476.629 54.0879 477.025 54.4844 477.025 54.9766C477.025 55.4619 476.629 55.8652 476.137 55.8652ZM482.207 55.9609C480.115 55.9609 478.625 54.7852 478.625 53.1309V53.1172C478.625 51.9004 479.479 50.8887 480.744 50.5947V50.5674C479.664 50.2324 478.98 49.4121 478.98 48.373V48.3594C478.98 46.8691 480.341 45.7686 482.207 45.7686C484.073 45.7686 485.434 46.8691 485.434 48.3594V48.373C485.434 49.4121 484.75 50.2324 483.67 50.5674V50.5947C484.935 50.8887 485.789 51.9004 485.789 53.1172V53.1309C485.789 54.7852 484.299 55.9609 482.207 55.9609ZM482.207 50.1094C483.396 50.1094 484.21 49.4326 484.21 48.4756V48.4619C484.21 47.5049 483.396 46.8281 482.207 46.8281C481.018 46.8281 480.204 47.5049 480.204 48.4619V48.4756C480.204 49.4326 481.018 50.1094 482.207 50.1094ZM482.207 54.8877C483.567 54.8877 484.538 54.1221 484.538 53.0557V53.042C484.538 51.9619 483.574 51.1895 482.207 51.1895C480.84 51.1895 479.876 51.9619 479.876 53.042V53.0557C479.876 54.1221 480.847 54.8877 482.207 54.8877ZM491.135 55.9609C489.098 55.9609 487.778 54.8262 487.648 53.2676L487.642 53.1855H488.824L488.831 53.2539C488.927 54.2246 489.822 54.8945 491.135 54.8945C492.427 54.8945 493.309 54.1699 493.309 53.124V53.1104C493.309 51.9004 492.44 51.2236 491.06 51.2236H489.822V50.1846H491.005C492.181 50.1846 493.001 49.46 493.001 48.4756V48.4619C493.001 47.4297 492.324 46.835 491.121 46.835C489.959 46.835 489.132 47.4502 489.029 48.4482L489.022 48.5166H487.84L487.847 48.4482C488.004 46.8418 489.275 45.7686 491.121 45.7686C493.001 45.7686 494.238 46.8145 494.238 48.3115V48.3252C494.238 49.542 493.377 50.376 492.146 50.6357V50.6631C493.582 50.7861 494.56 51.6816 494.56 53.083V53.0967C494.56 54.7441 493.11 55.9609 491.135 55.9609Z" fill="#44475B"/>
<defs>
<linearGradient id="paint0_linear_0_1" x1="8" y1="20.9819" x2="591" y2="20.9819" gradientUnits="userSpaceOnUse">
<stop stop-color="#FF4949"/>
<stop offset="0.153341" stop-color="#FF4E11"/>
<stop offset="0.304385" stop-color="#FC870A"/>
<stop offset="0.48668" stop-color="#FFAF11"/>
<stop offset="0.627308" stop-color="#C2CB21"/>
<stop offset="1" stop-color="#11EB68"/>
</linearGradient>
<clipPath id="clip0_0_1">
<rect width="12" height="8" fill="white" transform="translate(452 25.7969)"/>
</clipPath>
</defs>
</svg>
