<svg width="391" height="23" viewBox="0 0 391 23" fill="none" xmlns="http://www.w3.org/2000/svg">
<rect x="0.570007" y="7.79688" width="349.14" height="8" rx="2" fill="#00B386"/>
<path d="M361.056 16.7969L365.58 7.85014V7.77424H360.348V6.43324H367.199V7.81978L362.691 16.7969H361.056ZM372.355 16.9386C371.892 16.9318 371.437 16.8475 370.988 16.6855C370.543 16.5236 370.138 16.2537 369.774 15.8759C369.409 15.498 369.118 14.9903 368.898 14.3527C368.682 13.7151 368.574 12.9189 368.574 11.9642C368.574 11.0601 368.664 10.2572 368.843 9.55549C369.025 8.85378 369.286 8.26172 369.627 7.7793C369.968 7.2935 370.379 6.92409 370.862 6.67108C371.344 6.41806 371.886 6.29155 372.486 6.29155C373.103 6.29155 373.652 6.413 374.131 6.65589C374.61 6.89879 374.998 7.23446 375.295 7.66291C375.595 8.09135 375.785 8.57883 375.866 9.12535H374.323C374.218 8.69354 374.011 8.341 373.701 8.06774C373.39 7.79448 372.985 7.65785 372.486 7.65785C371.727 7.65785 371.135 7.98846 370.71 8.64968C370.288 9.3109 370.076 10.2302 370.072 11.4076H370.148C370.327 11.1141 370.546 10.8644 370.806 10.6586C371.069 10.4495 371.363 10.2892 371.687 10.1779C372.014 10.0632 372.358 10.0059 372.719 10.0059C373.319 10.0059 373.863 10.1526 374.348 10.4461C374.838 10.7362 375.227 11.1377 375.517 11.6505C375.807 12.1633 375.952 12.7503 375.952 13.4115C375.952 14.0727 375.802 14.6715 375.502 15.2079C375.205 15.7443 374.787 16.1694 374.247 16.4831C373.707 16.7935 373.077 16.9453 372.355 16.9386ZM372.349 15.6229C372.748 15.6229 373.103 15.525 373.417 15.3294C373.731 15.1337 373.979 14.8706 374.161 14.54C374.343 14.2093 374.434 13.8399 374.434 13.4317C374.434 13.0336 374.345 12.671 374.166 12.3438C373.991 12.0165 373.748 11.7567 373.437 11.5645C373.13 11.3722 372.78 11.276 372.385 11.276C372.085 11.276 371.806 11.3334 371.55 11.4481C371.297 11.5628 371.074 11.7213 370.882 11.9237C370.69 12.1262 370.538 12.3589 370.427 12.6221C370.319 12.8818 370.265 13.1568 370.265 13.4469C370.265 13.8349 370.354 14.1942 370.533 14.5248C370.715 14.8554 370.963 15.1219 371.277 15.3243C371.594 15.5233 371.951 15.6229 372.349 15.6229ZM383.205 14.8537V14.3072C383.205 13.9158 383.286 13.5582 383.448 13.2344C383.613 12.9071 383.853 12.6457 384.167 12.45C384.484 12.251 384.867 12.1515 385.315 12.1515C385.774 12.1515 386.159 12.2493 386.469 12.445C386.78 12.6406 387.014 12.9021 387.173 13.2293C387.335 13.5566 387.415 13.9158 387.415 14.3072V14.8537C387.415 15.245 387.335 15.6043 387.173 15.9316C387.011 16.2554 386.773 16.5169 386.459 16.7159C386.149 16.9116 385.767 17.0094 385.315 17.0094C384.86 17.0094 384.475 16.9116 384.162 16.7159C383.848 16.5169 383.61 16.2554 383.448 15.9316C383.286 15.6043 383.205 15.245 383.205 14.8537ZM384.384 14.3072V14.8537C384.384 15.1438 384.453 15.407 384.592 15.6431C384.73 15.8793 384.971 15.9973 385.315 15.9973C385.656 15.9973 385.894 15.8793 386.029 15.6431C386.164 15.407 386.231 15.1438 386.231 14.8537V14.3072C386.231 14.017 386.166 13.7539 386.034 13.5178C385.906 13.2816 385.666 13.1635 385.315 13.1635C384.978 13.1635 384.739 13.2816 384.597 13.5178C384.455 13.7539 384.384 14.017 384.384 14.3072ZM377.993 8.92294V8.37642C377.993 7.98508 378.074 7.6258 378.236 7.29856C378.401 6.97132 378.641 6.70987 378.955 6.5142C379.272 6.31854 379.655 6.2207 380.103 6.2207C380.562 6.2207 380.947 6.31854 381.257 6.5142C381.567 6.70987 381.802 6.97132 381.96 7.29856C382.119 7.6258 382.198 7.98508 382.198 8.37642V8.92294C382.198 9.31428 382.117 9.67356 381.955 10.0008C381.797 10.3247 381.561 10.5861 381.247 10.7852C380.937 10.9808 380.555 11.0787 380.103 11.0787C379.644 11.0787 379.258 10.9808 378.944 10.7852C378.634 10.5861 378.398 10.3247 378.236 10.0008C378.074 9.67356 377.993 9.31428 377.993 8.92294ZM379.177 8.37642V8.92294C379.177 9.21307 379.245 9.47621 379.38 9.71236C379.518 9.94851 379.759 10.0666 380.103 10.0666C380.441 10.0666 380.677 9.94851 380.812 9.71236C380.95 9.47621 381.019 9.21307 381.019 8.92294V8.37642C381.019 8.08629 380.953 7.82315 380.822 7.587C380.69 7.35085 380.451 7.23278 380.103 7.23278C379.766 7.23278 379.526 7.35085 379.385 7.587C379.246 7.82315 379.177 8.08629 379.177 8.37642ZM378.474 16.7969L385.599 6.43324H386.808L379.683 16.7969H378.474Z" fill="#7C7E8C"/>
</svg>
