<svg width="75" height="23" viewBox="0 0 75 23" fill="none" xmlns="http://www.w3.org/2000/svg">
<rect x="0.570007" y="7.79688" width="33" height="8" rx="2" fill="#C7C8CE"/>
<path d="M48.5028 17.9522C47.7075 17.9522 47.0046 17.8154 46.3943 17.5416C45.7876 17.2679 45.3123 16.8906 44.9683 16.4097C44.6243 15.9288 44.4541 15.3814 44.4578 14.7673C44.4541 14.2864 44.5521 13.8444 44.7519 13.4412C44.9553 13.0343 45.2309 12.6958 45.5786 12.4258C45.9263 12.152 46.3147 11.9782 46.7438 11.9042V11.8376C46.1779 11.7008 45.7247 11.3974 45.3844 10.9276C45.0441 10.4579 44.8758 9.91779 44.8795 9.30744C44.8758 8.72668 45.0293 8.20881 45.34 7.75382C45.6545 7.29513 46.0854 6.93447 46.6329 6.67183C47.1803 6.40919 47.8036 6.27788 48.5028 6.27788C49.1945 6.27788 49.8122 6.41104 50.356 6.67738C50.9035 6.94001 51.3344 7.30068 51.6488 7.75937C51.9633 8.21436 52.1223 8.73038 52.126 9.30744C52.1223 9.91779 51.9485 10.4579 51.6045 10.9276C51.2604 11.3974 50.8128 11.7008 50.2617 11.8376V11.9042C50.6871 11.9782 51.0699 12.152 51.4103 12.4258C51.7543 12.6958 52.028 13.0343 52.2315 13.4412C52.4386 13.8444 52.544 14.2864 52.5477 14.7673C52.544 15.3814 52.3702 15.9288 52.0262 16.4097C51.6821 16.8906 51.205 17.2679 50.5946 17.5416C49.9879 17.8154 49.2907 17.9522 48.5028 17.9522ZM48.5028 16.5484C48.9725 16.5484 49.3794 16.4707 49.7235 16.3154C50.0675 16.1563 50.3338 15.9362 50.5225 15.6551C50.7111 15.3703 50.8073 15.0373 50.811 14.6563C50.8073 14.2605 50.7037 13.911 50.5003 13.6076C50.3005 13.3043 50.0286 13.0657 49.6846 12.8919C49.3406 12.718 48.9466 12.6311 48.5028 12.6311C48.0552 12.6311 47.6575 12.718 47.3098 12.8919C46.9621 13.0657 46.6883 13.3043 46.4886 13.6076C46.2888 13.911 46.1908 14.2605 46.1945 14.6563C46.1908 15.0373 46.2814 15.3703 46.4664 15.6551C46.6551 15.9362 46.9232 16.1563 47.271 16.3154C47.6187 16.4707 48.0293 16.5484 48.5028 16.5484ZM48.5028 11.2606C48.8801 11.2606 49.2148 11.1847 49.5071 11.0331C49.7993 10.8814 50.0286 10.6706 50.1951 10.4005C50.3653 10.1305 50.4522 9.81422 50.4559 9.4517C50.4522 9.09659 50.3671 8.78587 50.2006 8.51953C50.0379 8.2532 49.8104 8.0479 49.5182 7.90363C49.2259 7.75567 48.8875 7.68168 48.5028 7.68168C48.1107 7.68168 47.7666 7.75567 47.4707 7.90363C47.1785 8.0479 46.951 8.2532 46.7882 8.51953C46.6255 8.78587 46.5459 9.09659 46.5496 9.4517C46.5459 9.81422 46.6273 10.1305 46.7938 10.4005C46.9602 10.6706 47.1896 10.8814 47.4818 11.0331C47.7777 11.1847 48.1181 11.2606 48.5028 11.2606ZM60.467 15.6662V15.0669C60.467 14.6378 60.5558 14.2457 60.7334 13.8906C60.9146 13.5318 61.1773 13.2451 61.5213 13.0306C61.869 12.8123 62.2888 12.7032 62.7808 12.7032C63.2839 12.7032 63.7056 12.8105 64.0459 13.025C64.3862 13.2396 64.6433 13.5263 64.8172 13.8851C64.9947 14.2439 65.0835 14.6378 65.0835 15.0669V15.6662C65.0835 16.0953 64.9947 16.4892 64.8172 16.8481C64.6396 17.2032 64.3788 17.4898 64.0348 17.7081C63.6945 17.9226 63.2765 18.0299 62.7808 18.0299C62.2814 18.0299 61.8597 17.9226 61.5157 17.7081C61.1717 17.4898 60.9109 17.2032 60.7334 16.8481C60.5558 16.4892 60.467 16.0953 60.467 15.6662ZM61.7599 15.0669V15.6662C61.7599 15.9843 61.8357 16.2728 61.9874 16.5318C62.139 16.7907 62.4035 16.9202 62.7808 16.9202C63.1544 16.9202 63.4152 16.7907 63.5632 16.5318C63.7111 16.2728 63.7851 15.9843 63.7851 15.6662V15.0669C63.7851 14.7488 63.713 14.4603 63.5687 14.2013C63.4282 13.9424 63.1655 13.8129 62.7808 13.8129C62.4109 13.8129 62.1483 13.9424 61.9929 14.2013C61.8376 14.4603 61.7599 14.7488 61.7599 15.0669ZM54.7519 9.16317V8.56392C54.7519 8.13482 54.8407 7.74087 55.0183 7.38206C55.1995 7.02325 55.4622 6.73656 55.8062 6.52202C56.1539 6.30747 56.5737 6.2002 57.0657 6.2002C57.5688 6.2002 57.9905 6.30747 58.3308 6.52202C58.6711 6.73656 58.9282 7.02325 59.1021 7.38206C59.2759 7.74087 59.3629 8.13482 59.3629 8.56392V9.16317C59.3629 9.59227 59.2741 9.98622 59.0965 10.345C58.9227 10.7002 58.6637 10.9868 58.3197 11.2051C57.9794 11.4196 57.5614 11.5269 57.0657 11.5269C56.5626 11.5269 56.1391 11.4196 55.7951 11.2051C55.4548 10.9868 55.1958 10.7002 55.0183 10.345C54.8407 9.98622 54.7519 9.59227 54.7519 9.16317ZM56.0503 8.56392V9.16317C56.0503 9.4813 56.1243 9.76983 56.2723 10.0288C56.4239 10.2877 56.6884 10.4172 57.0657 10.4172C57.4356 10.4172 57.6946 10.2877 57.8425 10.0288C57.9942 9.76983 58.07 9.4813 58.07 9.16317V8.56392C58.07 8.2458 57.9979 7.95727 57.8536 7.69833C57.7094 7.43939 57.4467 7.30992 57.0657 7.30992C56.6958 7.30992 56.4332 7.43939 56.2778 7.69833C56.1261 7.95727 56.0503 8.2458 56.0503 8.56392ZM55.279 17.7969L63.0915 6.43324H64.4177L56.6052 17.7969H55.279Z" fill="#7C7E8C"/>
</svg>
