<svg width="44" height="45" viewBox="0 0 44 45" fill="none" xmlns="http://www.w3.org/2000/svg">
<rect y="0.046875" width="44" height="44" rx="22" fill="#0082FF"/>
<path d="M15.0001 25.257V22.457H17.8001V25.257H15.0001ZM29.0001 14.7486C28.9978 14.1931 28.7756 13.6611 28.382 13.2691C27.9884 12.8771 27.4556 12.657 26.9001 12.657H12.7923C12.2353 12.657 11.7012 12.8782 11.3073 13.2721C10.9135 13.6659 10.6923 14.2 10.6923 14.757V27.357C10.6923 28.2852 11.061 29.1755 11.7174 29.8319C12.3738 30.4882 13.264 30.857 14.1923 30.857H29.8079C30.7361 30.857 31.6264 30.4882 32.2827 29.8319C32.9391 29.1755 33.3079 28.2852 33.3079 27.357V18.957C33.3079 18.4 33.0866 17.8659 32.6928 17.4721C32.299 17.0782 31.7648 16.857 31.2079 16.857H30.4001V26.979C30.4001 27.1646 30.3263 27.3427 30.195 27.474C30.0638 27.6052 29.8857 27.679 29.7001 27.679C29.5144 27.679 29.3364 27.6052 29.2051 27.474C29.0738 27.3427 29.0001 27.1646 29.0001 26.979V14.7486ZM13.6001 17.557C13.6001 17.3713 13.6738 17.1933 13.8051 17.062C13.9364 16.9307 14.1144 16.857 14.3001 16.857H25.5001C25.6857 16.857 25.8638 16.9307 25.995 17.062C26.1263 17.1933 26.2001 17.3713 26.2001 17.557C26.2001 17.7426 26.1263 17.9207 25.995 18.052C25.8638 18.1832 25.6857 18.257 25.5001 18.257H14.3001C14.1144 18.257 13.9364 18.1832 13.8051 18.052C13.6738 17.9207 13.6001 17.7426 13.6001 17.557ZM21.3001 21.057H25.5001C25.6857 21.057 25.8638 21.1307 25.995 21.262C26.1263 21.3933 26.2001 21.5713 26.2001 21.757C26.2001 21.9426 26.1263 22.1207 25.995 22.252C25.8638 22.3832 25.6857 22.457 25.5001 22.457H21.3001C21.1144 22.457 20.9364 22.3832 20.8051 22.252C20.6738 22.1207 20.6001 21.9426 20.6001 21.757C20.6001 21.5713 20.6738 21.3933 20.8051 21.262C20.9364 21.1307 21.1144 21.057 21.3001 21.057ZM20.6001 25.957C20.6001 25.7713 20.6738 25.5933 20.8051 25.462C20.9364 25.3307 21.1144 25.257 21.3001 25.257H25.5001C25.6857 25.257 25.8638 25.3307 25.995 25.462C26.1263 25.5933 26.2001 25.7713 26.2001 25.957C26.2001 26.1426 26.1263 26.3207 25.995 26.452C25.8638 26.5832 25.6857 26.657 25.5001 26.657H21.3001C21.1144 26.657 20.9364 26.5832 20.8051 26.452C20.6738 26.3207 20.6001 26.1426 20.6001 25.957ZM14.3001 21.057H18.5001C18.6857 21.057 18.8638 21.1307 18.995 21.262C19.1263 21.3933 19.2001 21.5713 19.2001 21.757V25.957C19.2001 26.1426 19.1263 26.3207 18.995 26.452C18.8638 26.5832 18.6857 26.657 18.5001 26.657H14.3001C14.1144 26.657 13.9364 26.5832 13.8051 26.452C13.6738 26.3207 13.6001 26.1426 13.6001 25.957V21.757C13.6001 21.5713 13.6738 21.3933 13.8051 21.262C13.9364 21.1307 14.1144 21.057 14.3001 21.057Z" fill="white"/>
</svg>
