<svg width="97" height="24" viewBox="0 0 97 24" fill="none" xmlns="http://www.w3.org/2000/svg">
<g clip-path="url(#clip0_1_38309)">
<path fill-rule="evenodd" clip-rule="evenodd" d="M37.6803 7.00957L36.877 6.40706L37.2257 6.03778C37.2026 5.44428 37.4754 4.73777 37.9952 4.15193C38.565 3.50958 39.3145 3.14479 39.9453 3.15821L40.2912 2.79199L40.8937 3.59534L40.8828 3.60688C41.35 4.22696 41.1641 5.34474 40.361 6.25027C39.5096 7.2094 38.3396 7.50853 37.6832 7.00651L37.6803 7.00957Z" fill="url(#paint0_linear_1_38309)"/>
<path d="M39.8117 5.68712C40.7245 4.65829 40.9033 3.32632 40.2109 2.71209C39.5186 2.09786 38.2174 2.43397 37.3046 3.46281C36.3918 4.49165 36.2131 5.82361 36.9054 6.43784C37.5977 7.05207 38.8989 6.71596 39.8117 5.68712Z" fill="url(#paint1_linear_1_38309)"/>
<path d="M39.8244 5.69847C40.7316 4.67594 40.9001 3.34407 40.2009 2.72366C39.5016 2.10325 38.1993 2.42923 37.2921 3.45176C36.3849 4.4743 36.2163 5.80617 36.9156 6.42658C37.6148 7.04699 38.9172 6.72101 39.8244 5.69847Z" fill="#0052FE"/>
<path d="M10.3802 12.0667L19.2748 2.53662H14.5447L5.09816 12.4596V2.53662H0.847656V22.2684H5.09816V17.6163L7.58131 15.0391L13.4964 22.2684H18.4876L10.9819 12.8243L10.3802 12.0659V12.0667Z" fill="#0052FE"/>
<path d="M32.9824 11.3061C31.6601 9.20854 29.2339 7.91113 26.276 7.91113C23.1148 7.91113 20.5482 9.39411 19.2965 11.7439C18.7559 12.7505 18.4611 13.9194 18.4611 15.1959C18.4611 19.4552 21.7596 22.4806 26.276 22.4806C30.7924 22.4806 34.0661 19.4552 34.0661 15.1959C34.0661 13.7282 33.6765 12.4059 32.9824 11.3061ZM26.276 19.1138C24.2162 19.1138 22.6312 17.6413 22.6312 15.1959C22.6312 13.0927 23.8009 11.7094 25.4389 11.3639C25.7064 11.3053 25.9868 11.2764 26.276 11.2764C26.4793 11.2764 26.6745 11.2892 26.8665 11.3205C28.625 11.5744 29.8935 12.9891 29.8935 15.1959C29.8935 17.6413 28.3366 19.1138 26.2768 19.1138H26.276Z" fill="#0052FE"/>
<path d="M40.9307 8.12158H36.8119V22.2693H40.9307V8.12158Z" fill="#0052FE"/>
<path d="M53.3954 7.91113C51.4673 7.91113 49.8036 8.56988 48.695 9.77811V8.12161H44.761V22.2694H48.8789V15.2738C48.8789 14.2455 49.1007 13.4349 49.4951 12.8332C50.0928 11.9054 51.0889 11.4627 52.2867 11.4627C53.9055 11.4627 54.9193 12.2926 55.125 14.08C55.1515 14.3034 55.1643 14.546 55.1643 14.8014V22.2686H57.433L59.2855 19.6962V14.1716C59.2855 9.85684 56.7493 7.91113 53.3954 7.91113Z" fill="#0052FE"/>
<path d="M80.6956 2.46973L60.489 22.2698H66.7784L68.6245 19.6453L79.0801 4.76891L80.6956 2.46973Z" fill="url(#paint2_linear_1_38309)"/>
<path d="M74.7396 2.46973L74.0937 3.36787L63.953 17.4554L60.489 22.2698L80.6956 2.46973H74.7396Z" fill="url(#paint3_linear_1_38309)"/>
<path d="M78.6952 18.8119L78.4342 18.4423C78.2164 18.1338 77.8622 17.9507 77.4862 17.9507H72.7328C72.5569 17.9507 72.4203 18.0551 72.3552 18.1941L81.1414 22.2695L78.6952 18.8119Z" fill="#F69300"/>
<path d="M72.3552 18.1943C72.2973 18.3181 72.2965 18.4691 72.3825 18.6008L73.3586 20.0862H73.361L74.7966 22.2697H81.1422L72.356 18.1943H72.3552Z" fill="url(#paint4_linear_1_38309)"/>
<path d="M69.4985 6.13428L67.9938 3.92508L67.0025 2.47021H60.7942L69.4013 6.70466C69.57 6.57853 69.6334 6.33271 69.4993 6.13428H69.4985Z" fill="url(#paint5_linear_1_38309)"/>
<path d="M60.7935 2.46955L63.4421 6.28786C63.4533 6.30312 63.4638 6.31598 63.475 6.33124C63.6943 6.61804 64.0342 6.78754 64.3973 6.78754H69.1531C69.2503 6.78754 69.333 6.7538 69.4013 6.70319L60.7943 2.46875L60.7935 2.46955Z" fill="#F69300"/>
<path d="M89.4297 3.22562H87.7572V7.61189H86.627V3.22562H84.9774V2.39014H89.4297V3.22562ZM91.5416 2.39014L92.9458 6.16141L94.3442 2.39014H95.8226V7.61189H94.681V6.16141L94.8066 3.68977L93.3282 7.61189H92.5576L91.085 3.69558L91.1991 6.16141V7.61189H90.0747V2.39014H91.5416Z" fill="black"/>
</g>
<defs>
<linearGradient id="paint0_linear_1_38309" x1="40.9941" y1="3.79619" x2="37.9815" y2="7.31084" gradientUnits="userSpaceOnUse">
<stop stop-color="#3372F5"/>
<stop offset="0.249995" stop-color="#3372F5"/>
<stop offset="0.505208" stop-color="#80DBFB"/>
<stop offset="0.838547" stop-color="#3372F5"/>
<stop offset="1" stop-color="#3372F5"/>
</linearGradient>
<linearGradient id="paint1_linear_1_38309" x1="45.4545" y1="3.78449" x2="44.6486" y2="4.6917" gradientUnits="userSpaceOnUse">
<stop stop-color="#0080D4"/>
<stop offset="0.47" stop-color="white"/>
<stop offset="0.6" stop-color="#F1F8FC"/>
<stop offset="1" stop-color="#007DCC"/>
</linearGradient>
<linearGradient id="paint2_linear_1_38309" x1="76.1559" y1="7.78307" x2="68.3273" y2="16.84" gradientUnits="userSpaceOnUse">
<stop stop-color="#FFAC00"/>
<stop offset="1" stop-color="#FE7801"/>
</linearGradient>
<linearGradient id="paint3_linear_1_38309" x1="60.489" y1="12.3702" x2="80.6956" y2="12.3702" gradientUnits="userSpaceOnUse">
<stop stop-color="#FFCE00"/>
<stop offset="1" stop-color="#FFB003"/>
</linearGradient>
<linearGradient id="paint4_linear_1_38309" x1="72.3142" y1="20.2324" x2="81.1414" y2="20.2324" gradientUnits="userSpaceOnUse">
<stop stop-color="#FE8B01"/>
<stop offset="1" stop-color="#FE7801"/>
</linearGradient>
<linearGradient id="paint5_linear_1_38309" x1="60.7934" y1="4.58703" x2="69.5716" y2="4.58703" gradientUnits="userSpaceOnUse">
<stop stop-color="#FFCE00"/>
<stop offset="1" stop-color="#FFC101"/>
</linearGradient>
<clipPath id="clip0_1_38309">
<rect width="96" height="24" fill="white" transform="translate(0.847656)"/>
</clipPath>
</defs>
</svg>
