<svg width="75" height="22" viewBox="0 0 75 22" fill="none" xmlns="http://www.w3.org/2000/svg">
<rect x="0.709999" y="7" width="33" height="8" rx="2" fill="#C7C8CE"/>
<path d="M48.6427 17.1554C47.8474 17.1554 47.1446 17.0185 46.5343 16.7448C45.9276 16.471 45.4523 16.0937 45.1083 15.6128C44.7642 15.132 44.5941 14.5845 44.5978 13.9704C44.5941 13.4896 44.6921 13.0475 44.8919 12.6443C45.0953 12.2374 45.3709 11.8989 45.7186 11.6289C46.0663 11.3552 46.4547 11.1813 46.8838 11.1073V11.0407C46.3179 10.9039 45.8647 10.6006 45.5244 10.1308C45.1841 9.66098 45.0158 9.12092 45.0195 8.51056C45.0158 7.92981 45.1693 7.41193 45.48 6.95694C45.7944 6.49825 46.2254 6.13759 46.7729 5.87496C47.3203 5.61232 47.9436 5.481 48.6427 5.481C49.3345 5.481 49.9522 5.61417 50.496 5.8805C51.0435 6.14314 51.4744 6.5038 51.7888 6.96249C52.1033 7.41748 52.2623 7.9335 52.266 8.51056C52.2623 9.12092 52.0885 9.66098 51.7444 10.1308C51.4004 10.6006 50.9528 10.9039 50.4017 11.0407V11.1073C50.8271 11.1813 51.2099 11.3552 51.5502 11.6289C51.8943 11.8989 52.168 12.2374 52.3714 12.6443C52.5786 13.0475 52.684 13.4896 52.6877 13.9704C52.684 14.5845 52.5102 15.132 52.1661 15.6128C51.8221 16.0937 51.3449 16.471 50.7346 16.7448C50.1279 17.0185 49.4307 17.1554 48.6427 17.1554ZM48.6427 15.7516C49.1125 15.7516 49.5194 15.6739 49.8635 15.5185C50.2075 15.3594 50.4738 15.1394 50.6625 14.8582C50.8511 14.5734 50.9473 14.2405 50.951 13.8595C50.9473 13.4637 50.8437 13.1141 50.6403 12.8108C50.4405 12.5074 50.1686 12.2689 49.8246 12.095C49.4806 11.9211 49.0866 11.8342 48.6427 11.8342C48.1952 11.8342 47.7975 11.9211 47.4498 12.095C47.1021 12.2689 46.8283 12.5074 46.6286 12.8108C46.4288 13.1141 46.3308 13.4637 46.3345 13.8595C46.3308 14.2405 46.4214 14.5734 46.6064 14.8582C46.795 15.1394 47.0632 15.3594 47.4109 15.5185C47.7587 15.6739 48.1693 15.7516 48.6427 15.7516ZM48.6427 10.4637C49.0201 10.4637 49.3548 10.3879 49.6471 10.2362C49.9393 10.0845 50.1686 9.87368 50.3351 9.60365C50.5052 9.33361 50.5922 9.01734 50.5959 8.65483C50.5922 8.29972 50.5071 7.98899 50.3406 7.72266C50.1779 7.45632 49.9504 7.25102 49.6582 7.10676C49.3659 6.95879 49.0275 6.88481 48.6427 6.88481C48.2506 6.88481 47.9066 6.95879 47.6107 7.10676C47.3185 7.25102 47.091 7.45632 46.9282 7.72266C46.7655 7.98899 46.6859 8.29972 46.6896 8.65483C46.6859 9.01734 46.7673 9.33361 46.9338 9.60365C47.1002 9.87368 47.3296 10.0845 47.6218 10.2362C47.9177 10.3879 48.258 10.4637 48.6427 10.4637ZM60.607 14.8693V14.2701C60.607 13.841 60.6958 13.4489 60.8734 13.0938C61.0546 12.7349 61.3173 12.4483 61.6613 12.2337C62.009 12.0155 62.4288 11.9063 62.9208 11.9063C63.4239 11.9063 63.8456 12.0136 64.1859 12.2282C64.5262 12.4427 64.7833 12.7294 64.9572 13.0882C65.1347 13.447 65.2235 13.841 65.2235 14.2701V14.8693C65.2235 15.2984 65.1347 15.6924 64.9572 16.0512C64.7796 16.4063 64.5188 16.693 64.1748 16.9112C63.8345 17.1258 63.4165 17.233 62.9208 17.233C62.4214 17.233 61.9997 17.1258 61.6557 16.9112C61.3117 16.693 61.0509 16.4063 60.8734 16.0512C60.6958 15.6924 60.607 15.2984 60.607 14.8693ZM61.8999 14.2701V14.8693C61.8999 15.1874 61.9757 15.476 62.1274 15.7349C62.279 15.9938 62.5435 16.1233 62.9208 16.1233C63.2944 16.1233 63.5552 15.9938 63.7032 15.7349C63.8511 15.476 63.9251 15.1874 63.9251 14.8693V14.2701C63.9251 13.9519 63.853 13.6634 63.7087 13.4045C63.5682 13.1455 63.3055 13.0161 62.9208 13.0161C62.5509 13.0161 62.2883 13.1455 62.1329 13.4045C61.9775 13.6634 61.8999 13.9519 61.8999 14.2701ZM54.8919 8.3663V7.76704C54.8919 7.33795 54.9807 6.944 55.1583 6.58518C55.3395 6.22637 55.6021 5.93969 55.9462 5.72514C56.2939 5.51059 56.7137 5.40332 57.2057 5.40332C57.7088 5.40332 58.1305 5.51059 58.4708 5.72514C58.8111 5.93969 59.0682 6.22637 59.2421 6.58518C59.4159 6.944 59.5028 7.33795 59.5028 7.76704V8.3663C59.5028 8.7954 59.4141 9.18935 59.2365 9.54816C59.0627 9.90328 58.8037 10.19 58.4597 10.4082C58.1194 10.6228 57.7014 10.73 57.2057 10.73C56.7026 10.73 56.2791 10.6228 55.9351 10.4082C55.5947 10.19 55.3358 9.90328 55.1583 9.54816C54.9807 9.18935 54.8919 8.7954 54.8919 8.3663ZM56.1903 7.76704V8.3663C56.1903 8.68442 56.2643 8.97295 56.4122 9.23189C56.5639 9.49083 56.8284 9.62029 57.2057 9.62029C57.5756 9.62029 57.8346 9.49083 57.9825 9.23189C58.1342 8.97295 58.21 8.68442 58.21 8.3663V7.76704C58.21 7.44892 58.1379 7.16039 57.9936 6.90146C57.8493 6.64252 57.5867 6.51305 57.2057 6.51305C56.8358 6.51305 56.5732 6.64252 56.4178 6.90146C56.2661 7.16039 56.1903 7.44892 56.1903 7.76704ZM55.419 17L63.2315 5.63636H64.5577L56.7452 17H55.419Z" fill="#7C7E8C"/>
</svg>
