<svg width="83" height="22" viewBox="0 0 83 22" fill="none" xmlns="http://www.w3.org/2000/svg">
<rect x="0.709999" y="7" width="41" height="8" rx="2" fill="#F7324C"/>
<path d="M57.1144 5.63636V17H55.3943V7.35645H55.3277L52.6089 9.13201V7.48961L55.4442 5.63636H57.1144ZM64.1556 17.1554C63.6488 17.148 63.1495 17.0555 62.6575 16.8779C62.1692 16.7004 61.7253 16.4044 61.3258 15.9901C60.9263 15.5758 60.6063 15.0191 60.3659 14.32C60.1292 13.6209 60.0108 12.7479 60.0108 11.701C60.0108 10.7097 60.1088 9.82929 60.3049 9.05988C60.5046 8.29047 60.7913 7.64128 61.1649 7.1123C61.5385 6.57963 61.9898 6.17458 62.5188 5.89715C63.0477 5.61972 63.6414 5.481 64.2999 5.481C64.9768 5.481 65.5779 5.61417 66.1032 5.8805C66.6285 6.14684 67.0539 6.5149 67.3794 6.98469C67.7086 7.45447 67.9176 7.98899 68.0064 8.58825H66.314C66.1994 8.11476 65.9719 7.7282 65.6316 7.42858C65.2912 7.12895 64.8474 6.97914 64.2999 6.97914C63.4676 6.97914 62.8184 7.34165 62.3523 8.06667C61.8899 8.7917 61.6569 9.7997 61.6532 11.0907H61.7364C61.9325 10.7689 62.1729 10.4951 62.4577 10.2695C62.7463 10.0401 63.0681 9.86444 63.4232 9.74236C63.782 9.6166 64.1593 9.55371 64.5551 9.55371C65.2136 9.55371 65.8091 9.71462 66.3418 10.0364C66.8782 10.3546 67.3054 10.7948 67.6235 11.357C67.9417 11.9193 68.1007 12.5629 68.1007 13.288C68.1007 14.013 67.9361 14.6696 67.6069 15.2577C67.2814 15.8459 66.8227 16.312 66.2308 16.656C65.639 16.9963 64.9472 17.1628 64.1556 17.1554ZM64.1501 15.7127C64.5866 15.7127 64.9768 15.6054 65.3208 15.3909C65.6649 15.1763 65.9367 14.8878 66.1365 14.5253C66.3362 14.1628 66.4361 13.7577 66.4361 13.3101C66.4361 12.8737 66.3381 12.476 66.142 12.1172C65.9497 11.7584 65.6834 11.4735 65.343 11.2627C65.0064 11.0518 64.6217 10.9464 64.1889 10.9464C63.8597 10.9464 63.5545 11.0093 63.2734 11.1351C62.996 11.2608 62.7518 11.4347 62.541 11.6566C62.3301 11.8786 62.1637 12.1338 62.0416 12.4224C61.9232 12.7072 61.864 13.0087 61.864 13.3268C61.864 13.7522 61.9621 14.1461 62.1581 14.5087C62.3579 14.8712 62.6297 15.1634 62.9738 15.3853C63.3215 15.6036 63.7136 15.7127 64.1501 15.7127ZM76.0533 14.8693V14.2701C76.0533 13.841 76.1421 13.4489 76.3197 13.0938C76.5009 12.7349 76.7635 12.4483 77.1076 12.2337C77.4553 12.0155 77.8751 11.9063 78.3671 11.9063C78.8702 11.9063 79.2919 12.0136 79.6322 12.2282C79.9725 12.4427 80.2296 12.7294 80.4035 13.0882C80.581 13.447 80.6698 13.841 80.6698 14.2701V14.8693C80.6698 15.2984 80.581 15.6924 80.4035 16.0512C80.2259 16.4063 79.9651 16.693 79.6211 16.9112C79.2808 17.1258 78.8628 17.233 78.3671 17.233C77.8677 17.233 77.446 17.1258 77.102 16.9112C76.758 16.693 76.4972 16.4063 76.3197 16.0512C76.1421 15.6924 76.0533 15.2984 76.0533 14.8693ZM77.3462 14.2701V14.8693C77.3462 15.1874 77.422 15.476 77.5736 15.7349C77.7253 15.9938 77.9898 16.1233 78.3671 16.1233C78.7407 16.1233 79.0015 15.9938 79.1495 15.7349C79.2974 15.476 79.3714 15.1874 79.3714 14.8693V14.2701C79.3714 13.9519 79.2993 13.6634 79.155 13.4045C79.0144 13.1455 78.7518 13.0161 78.3671 13.0161C77.9972 13.0161 77.7346 13.1455 77.5792 13.4045C77.4238 13.6634 77.3462 13.9519 77.3462 14.2701ZM70.3382 8.3663V7.76704C70.3382 7.33795 70.427 6.944 70.6045 6.58518C70.7858 6.22637 71.0484 5.93969 71.3924 5.72514C71.7402 5.51059 72.16 5.40332 72.652 5.40332C73.1551 5.40332 73.5768 5.51059 73.9171 5.72514C74.2574 5.93969 74.5145 6.22637 74.6883 6.58518C74.8622 6.944 74.9491 7.33795 74.9491 7.76704V8.3663C74.9491 8.7954 74.8604 9.18935 74.6828 9.54816C74.5089 9.90328 74.25 10.19 73.906 10.4082C73.5657 10.6228 73.1477 10.73 72.652 10.73C72.1489 10.73 71.7254 10.6228 71.3814 10.4082C71.041 10.19 70.7821 9.90328 70.6045 9.54816C70.427 9.18935 70.3382 8.7954 70.3382 8.3663ZM71.6366 7.76704V8.3663C71.6366 8.68442 71.7106 8.97295 71.8585 9.23189C72.0102 9.49083 72.2747 9.62029 72.652 9.62029C73.0219 9.62029 73.2808 9.49083 73.4288 9.23189C73.5805 8.97295 73.6563 8.68442 73.6563 8.3663V7.76704C73.6563 7.44892 73.5842 7.16039 73.4399 6.90146C73.2956 6.64252 73.033 6.51305 72.652 6.51305C72.2821 6.51305 72.0194 6.64252 71.8641 6.90146C71.7124 7.16039 71.6366 7.44892 71.6366 7.76704ZM70.8653 17L78.6778 5.63636H80.004L72.1915 17H70.8653Z" fill="#7C7E8C"/>
</svg>
