<svg width="176" height="60" viewBox="0 0 176 60" fill="none" xmlns="http://www.w3.org/2000/svg">
<rect x="8" y="20.1851" width="160" height="4.63" rx="2.315" fill="#121212" fill-opacity="0.3"/>
<rect x="8" y="20.1851" width="160" height="4.63" rx="2.315" fill="url(#paint0_linear_0_1)"/>
<g clip-path="url(#clip0_0_1)">
<rect x="119.65" y="27.3401" width="8.00001" height="8.00001" transform="rotate(45 119.65 27.3401)" fill="black"/>
</g>
<path d="M86.0127 55.9912V54.8359C84.3857 54.6855 83.0391 53.6943 82.9844 52.1084V52.1016L84.1738 52.0947V52.1084C84.2969 52.9561 84.8232 53.6328 86.0127 53.7627V50.4746L85.8555 50.4336C84.1533 50.0234 83.2373 49.2646 83.2373 47.9248V47.9111C83.2373 46.4482 84.3926 45.4502 86.0127 45.2998V44.1445H86.833V45.2998C88.4121 45.4434 89.6357 46.4688 89.6904 47.9727V47.9795L88.501 47.9863V47.9727C88.4121 47.0566 87.7559 46.4893 86.833 46.373V49.5107L87.0449 49.5586C88.8018 49.9824 89.7861 50.707 89.7861 52.1357V52.1494C89.7861 53.79 88.4463 54.7129 86.833 54.8428V55.9912H86.0127ZM84.4268 47.8428C84.4268 48.5059 84.8369 49.0254 86.0127 49.3125V46.373C84.9736 46.5166 84.4268 47.1729 84.4268 47.8291V47.8428ZM86.874 50.6797L86.833 50.6729V53.7764C88.1045 53.6738 88.5967 53.0312 88.5967 52.2451V52.2314C88.5967 51.4863 88.2275 51.0078 86.874 50.6797ZM96.4238 55V52.9561H91.6182V51.835C92.9512 49.5996 94.4619 47.1934 95.8428 45.1357H97.627V51.8555H99.0283V52.9561H97.627V55H96.4238ZM92.876 51.8623H96.4307V46.2773H96.3486C95.2412 47.9316 93.9492 49.9688 92.876 51.7803V51.8623ZM104.299 55.1641C102.207 55.1641 100.717 53.9883 100.717 52.334V52.3203C100.717 51.1035 101.571 50.0918 102.836 49.7979V49.7705C101.756 49.4355 101.072 48.6152 101.072 47.5762V47.5625C101.072 46.0723 102.433 44.9717 104.299 44.9717C106.165 44.9717 107.525 46.0723 107.525 47.5625V47.5762C107.525 48.6152 106.842 49.4355 105.762 49.7705V49.7979C107.026 50.0918 107.881 51.1035 107.881 52.3203V52.334C107.881 53.9883 106.391 55.1641 104.299 55.1641ZM104.299 49.3125C105.488 49.3125 106.302 48.6357 106.302 47.6787V47.665C106.302 46.708 105.488 46.0312 104.299 46.0312C103.109 46.0312 102.296 46.708 102.296 47.665V47.6787C102.296 48.6357 103.109 49.3125 104.299 49.3125ZM104.299 54.0908C105.659 54.0908 106.63 53.3252 106.63 52.2588V52.2451C106.63 51.165 105.666 50.3926 104.299 50.3926C102.932 50.3926 101.968 51.165 101.968 52.2451V52.2588C101.968 53.3252 102.938 54.0908 104.299 54.0908ZM109.098 57.5088L109.692 53.6191H111.053L109.979 57.5088H109.098ZM116.487 55.2324C114.683 55.2324 112.775 53.9609 112.775 50.249V50.2354C112.775 46.8721 114.177 44.9033 116.569 44.9033C118.224 44.9033 119.454 45.874 119.789 47.3301L119.81 47.4189H118.572L118.545 47.3438C118.244 46.5166 117.554 46.0039 116.556 46.0039C114.765 46.0039 114.033 47.7539 113.958 49.8115C113.951 49.8867 113.951 49.9688 113.951 50.0439H114.081C114.443 49.2373 115.373 48.5195 116.706 48.5195C118.559 48.5195 119.939 49.9277 119.939 51.8213V51.835C119.939 53.8037 118.477 55.2324 116.487 55.2324ZM114.245 51.8213C114.245 53.1201 115.223 54.1455 116.474 54.1455C117.711 54.1455 118.702 53.1406 118.702 51.8623V51.8486C118.702 50.5361 117.772 49.5928 116.494 49.5928C115.216 49.5928 114.245 50.5293 114.245 51.8145V51.8213ZM125.271 55.1641C123.234 55.1641 121.915 54.0293 121.785 52.4707L121.778 52.3887H122.961L122.968 52.457C123.063 53.4277 123.959 54.0977 125.271 54.0977C126.563 54.0977 127.445 53.373 127.445 52.3271V52.3135C127.445 51.1035 126.577 50.4268 125.196 50.4268H123.959V49.3877H125.142C126.317 49.3877 127.138 48.6631 127.138 47.6787V47.665C127.138 46.6328 126.461 46.0381 125.258 46.0381C124.096 46.0381 123.269 46.6533 123.166 47.6514L123.159 47.7197H121.977L121.983 47.6514C122.141 46.0449 123.412 44.9717 125.258 44.9717C127.138 44.9717 128.375 46.0176 128.375 47.5146V47.5283C128.375 48.7451 127.514 49.5791 126.283 49.8389V49.8662C127.719 49.9893 128.696 50.8848 128.696 52.2861V52.2998C128.696 53.9473 127.247 55.1641 125.271 55.1641ZM131.103 55L135.532 46.332V46.2363H130.255V45.1357H136.783V46.2773L132.395 55H131.103ZM138.137 55.0684C137.651 55.0684 137.248 54.665 137.248 54.1797C137.248 53.6875 137.651 53.291 138.137 53.291C138.629 53.291 139.025 53.6875 139.025 54.1797C139.025 54.665 138.629 55.0684 138.137 55.0684ZM144.207 55.1641C142.115 55.1641 140.625 53.9883 140.625 52.334V52.3203C140.625 51.1035 141.479 50.0918 142.744 49.7979V49.7705C141.664 49.4355 140.98 48.6152 140.98 47.5762V47.5625C140.98 46.0723 142.341 44.9717 144.207 44.9717C146.073 44.9717 147.434 46.0723 147.434 47.5625V47.5762C147.434 48.6152 146.75 49.4355 145.67 49.7705V49.7979C146.935 50.0918 147.789 51.1035 147.789 52.3203V52.334C147.789 53.9883 146.299 55.1641 144.207 55.1641ZM144.207 49.3125C145.396 49.3125 146.21 48.6357 146.21 47.6787V47.665C146.21 46.708 145.396 46.0312 144.207 46.0312C143.018 46.0312 142.204 46.708 142.204 47.665V47.6787C142.204 48.6357 143.018 49.3125 144.207 49.3125ZM144.207 54.0908C145.567 54.0908 146.538 53.3252 146.538 52.2588V52.2451C146.538 51.165 145.574 50.3926 144.207 50.3926C142.84 50.3926 141.876 51.165 141.876 52.2451V52.2588C141.876 53.3252 142.847 54.0908 144.207 54.0908ZM153.135 55.1641C151.098 55.1641 149.778 54.0293 149.648 52.4707L149.642 52.3887H150.824L150.831 52.457C150.927 53.4277 151.822 54.0977 153.135 54.0977C154.427 54.0977 155.309 53.373 155.309 52.3271V52.3135C155.309 51.1035 154.44 50.4268 153.06 50.4268H151.822V49.3877H153.005C154.181 49.3877 155.001 48.6631 155.001 47.6787V47.665C155.001 46.6328 154.324 46.0381 153.121 46.0381C151.959 46.0381 151.132 46.6533 151.029 47.6514L151.022 47.7197H149.84L149.847 47.6514C150.004 46.0449 151.275 44.9717 153.121 44.9717C155.001 44.9717 156.238 46.0176 156.238 47.5146V47.5283C156.238 48.7451 155.377 49.5791 154.146 49.8389V49.8662C155.582 49.9893 156.56 50.8848 156.56 52.2861V52.2998C156.56 53.9473 155.11 55.1641 153.135 55.1641Z" fill="#44475B"/>
<defs>
<linearGradient id="paint0_linear_0_1" x1="8" y1="20.1851" x2="168.055" y2="20.1851" gradientUnits="userSpaceOnUse">
<stop stop-color="#FF4949"/>
<stop offset="0.153341" stop-color="#FF4E11"/>
<stop offset="0.304385" stop-color="#FC870A"/>
<stop offset="0.48668" stop-color="#FFAF11"/>
<stop offset="0.627308" stop-color="#C2CB21"/>
<stop offset="1" stop-color="#11EB68"/>
</linearGradient>
<clipPath id="clip0_0_1">
<rect width="12" height="8" fill="white" transform="translate(114 25)"/>
</clipPath>
</defs>
</svg>
