<svg width="181" height="22" viewBox="0 0 181 22" fill="none" xmlns="http://www.w3.org/2000/svg">
<rect x="0.709999" y="7" width="139" height="8" rx="2" fill="#00B386"/>
<path d="M151.056 16L155.58 7.05327V6.97736H150.348V5.63636H157.199V7.0229L152.691 16H151.056ZM162.355 16.1417C161.892 16.1349 161.437 16.0506 160.988 15.8887C160.543 15.7267 160.138 15.4569 159.774 15.079C159.409 14.7012 159.118 14.1934 158.898 13.5558C158.682 12.9182 158.574 12.1221 158.574 11.1673C158.574 10.2632 158.664 9.46032 158.843 8.75861C159.025 8.05691 159.286 7.46484 159.627 6.98242C159.968 6.49663 160.379 6.12722 160.862 5.8742C161.344 5.62118 161.886 5.49467 162.486 5.49467C163.104 5.49467 163.652 5.61612 164.131 5.85902C164.61 6.10192 164.998 6.43759 165.295 6.86603C165.595 7.29448 165.786 7.78196 165.866 8.32848H164.323C164.218 7.89666 164.011 7.54412 163.701 7.27086C163.39 6.9976 162.985 6.86097 162.486 6.86097C161.727 6.86097 161.135 7.19158 160.71 7.8528C160.288 8.51403 160.076 9.43333 160.072 10.6107H160.148C160.327 10.3172 160.546 10.0676 160.806 9.86177C161.069 9.65261 161.363 9.49236 161.687 9.38104C162.014 9.26634 162.358 9.20898 162.719 9.20898C163.319 9.20898 163.863 9.35574 164.348 9.64924C164.838 9.93936 165.227 10.3408 165.517 10.8536C165.807 11.3664 165.953 11.9534 165.953 12.6146C165.953 13.2758 165.802 13.8746 165.502 14.411C165.205 14.9474 164.787 15.3725 164.247 15.6863C163.707 15.9966 163.077 16.1484 162.355 16.1417ZM162.35 14.826C162.748 14.826 163.104 14.7282 163.417 14.5325C163.731 14.3368 163.979 14.0737 164.161 13.7431C164.343 13.4125 164.434 13.0431 164.434 12.6349C164.434 12.2368 164.345 11.8741 164.166 11.5469C163.991 11.2196 163.748 10.9599 163.438 10.7676C163.131 10.5753 162.78 10.4791 162.385 10.4791C162.085 10.4791 161.806 10.5365 161.55 10.6512C161.297 10.7659 161.074 10.9244 160.882 11.1269C160.69 11.3293 160.538 11.5621 160.427 11.8252C160.319 12.085 160.265 12.3599 160.265 12.65C160.265 13.038 160.354 13.3973 160.533 13.7279C160.715 14.0585 160.963 14.325 161.277 14.5274C161.594 14.7265 161.951 14.826 162.35 14.826ZM173.205 14.0568V13.5103C173.205 13.119 173.286 12.7614 173.448 12.4375C173.613 12.1103 173.853 11.8488 174.167 11.6531C174.484 11.4541 174.867 11.3546 175.315 11.3546C175.774 11.3546 176.159 11.4524 176.469 11.6481C176.78 11.8437 177.014 12.1052 177.173 12.4324C177.335 12.7597 177.416 13.119 177.416 13.5103V14.0568C177.416 14.4482 177.335 14.8074 177.173 15.1347C177.011 15.4585 176.773 15.72 176.459 15.919C176.149 16.1147 175.768 16.2125 175.315 16.2125C174.86 16.2125 174.475 16.1147 174.162 15.919C173.848 15.72 173.61 15.4585 173.448 15.1347C173.286 14.8074 173.205 14.4482 173.205 14.0568ZM174.384 13.5103V14.0568C174.384 14.3469 174.454 14.6101 174.592 14.8462C174.73 15.0824 174.971 15.2005 175.315 15.2005C175.656 15.2005 175.894 15.0824 176.029 14.8462C176.164 14.6101 176.231 14.3469 176.231 14.0568V13.5103C176.231 13.2202 176.166 12.957 176.034 12.7209C175.906 12.4847 175.666 12.3667 175.315 12.3667C174.978 12.3667 174.739 12.4847 174.597 12.7209C174.455 12.957 174.384 13.2202 174.384 13.5103ZM167.993 8.12607V7.57954C167.993 7.18821 168.074 6.82892 168.236 6.50169C168.401 6.17445 168.641 5.913 168.955 5.71733C169.272 5.52166 169.655 5.42383 170.103 5.42383C170.562 5.42383 170.947 5.52166 171.257 5.71733C171.567 5.913 171.802 6.17445 171.96 6.50169C172.119 6.82892 172.198 7.18821 172.198 7.57954V8.12607C172.198 8.5174 172.117 8.87669 171.955 9.20392C171.797 9.52779 171.561 9.78924 171.247 9.98828C170.937 10.1839 170.555 10.2818 170.103 10.2818C169.644 10.2818 169.258 10.1839 168.944 9.98828C168.634 9.78924 168.398 9.52779 168.236 9.20392C168.074 8.87669 167.993 8.5174 167.993 8.12607ZM169.177 7.57954V8.12607C169.177 8.41619 169.245 8.67933 169.38 8.91548C169.518 9.15163 169.759 9.26971 170.103 9.26971C170.441 9.26971 170.677 9.15163 170.812 8.91548C170.95 8.67933 171.019 8.41619 171.019 8.12607V7.57954C171.019 7.28942 170.953 7.02628 170.822 6.79013C170.69 6.55398 170.451 6.4359 170.103 6.4359C169.766 6.4359 169.526 6.55398 169.385 6.79013C169.246 7.02628 169.177 7.28942 169.177 7.57954ZM168.474 16L175.599 5.63636H176.808L169.683 16H168.474Z" fill="#7C7E8C"/>
</svg>
