<svg width="109" height="23" viewBox="0 0 109 23" fill="none" xmlns="http://www.w3.org/2000/svg">
<rect x="0.570007" y="7.79688" width="66.5" height="8" rx="2" fill="#F7324C"/>
<path d="M82.4744 6.43324V17.7969H80.7543V8.15332H80.6877L77.9689 9.92889V8.28649L80.8042 6.43324H82.4744ZM89.5156 17.9522C89.0089 17.9448 88.5095 17.8524 88.0175 17.6748C87.5292 17.4972 87.0853 17.2013 86.6858 16.787C86.2863 16.3727 85.9663 15.816 85.7259 15.1169C85.4892 14.4177 85.3708 13.5448 85.3708 12.4979C85.3708 11.5066 85.4688 10.6262 85.6649 9.85676C85.8646 9.08734 86.1513 8.43815 86.5249 7.90918C86.8985 7.37651 87.3498 6.97146 87.8788 6.69402C88.4078 6.41659 89.0015 6.27788 89.6599 6.27788C90.3368 6.27788 90.9379 6.41104 91.4632 6.67738C91.9885 6.94371 92.4139 7.31177 92.7394 7.78156C93.0686 8.25135 93.2776 8.78587 93.3664 9.38512H91.6741C91.5594 8.91164 91.3319 8.52508 90.9916 8.22545C90.6513 7.92583 90.2074 7.77601 89.6599 7.77601C88.8276 7.77601 88.1784 8.13852 87.7123 8.86355C87.2499 9.58857 87.0169 10.5966 87.0132 11.8876H87.0964C87.2925 11.5657 87.5329 11.292 87.8177 11.0664C88.1063 10.837 88.4281 10.6613 88.7832 10.5392C89.142 10.4135 89.5193 10.3506 89.9151 10.3506C90.5736 10.3506 91.1691 10.5115 91.7018 10.8333C92.2382 11.1514 92.6654 11.5916 92.9835 12.1539C93.3017 12.7162 93.4607 13.3598 93.4607 14.0848C93.4607 14.8099 93.2961 15.4664 92.9669 16.0546C92.6414 16.6428 92.1827 17.1088 91.5908 17.4529C90.999 17.7932 90.3072 17.9596 89.5156 17.9522ZM89.5101 16.5096C89.9466 16.5096 90.3368 16.4023 90.6808 16.1878C91.0249 15.9732 91.2967 15.6847 91.4965 15.3222C91.6963 14.9597 91.7961 14.5546 91.7961 14.107C91.7961 13.6705 91.6981 13.2729 91.502 12.9141C91.3097 12.5552 91.0434 12.2704 90.703 12.0596C90.3664 11.8487 89.9817 11.7433 89.5489 11.7433C89.2197 11.7433 88.9145 11.8062 88.6334 11.932C88.356 12.0577 88.1118 12.2316 87.901 12.4535C87.6901 12.6755 87.5237 12.9307 87.4016 13.2192C87.2832 13.5041 87.224 13.8055 87.224 14.1237C87.224 14.5491 87.3221 14.943 87.5181 15.3055C87.7179 15.668 87.9898 15.9603 88.3338 16.1822C88.6815 16.4005 89.0736 16.5096 89.5101 16.5096ZM101.413 15.6662V15.0669C101.413 14.6378 101.502 14.2457 101.68 13.8906C101.861 13.5318 102.124 13.2451 102.468 13.0306C102.815 12.8123 103.235 12.7032 103.727 12.7032C104.23 12.7032 104.652 12.8105 104.992 13.025C105.333 13.2396 105.59 13.5263 105.763 13.8851C105.941 14.2439 106.03 14.6378 106.03 15.0669V15.6662C106.03 16.0953 105.941 16.4892 105.763 16.8481C105.586 17.2032 105.325 17.4898 104.981 17.7081C104.641 17.9226 104.223 18.0299 103.727 18.0299C103.228 18.0299 102.806 17.9226 102.462 17.7081C102.118 17.4898 101.857 17.2032 101.68 16.8481C101.502 16.4892 101.413 16.0953 101.413 15.6662ZM102.706 15.0669V15.6662C102.706 15.9843 102.782 16.2728 102.934 16.5318C103.085 16.7907 103.35 16.9202 103.727 16.9202C104.101 16.9202 104.362 16.7907 104.509 16.5318C104.657 16.2728 104.731 15.9843 104.731 15.6662V15.0669C104.731 14.7488 104.659 14.4603 104.515 14.2013C104.374 13.9424 104.112 13.8129 103.727 13.8129C103.357 13.8129 103.095 13.9424 102.939 14.2013C102.784 14.4603 102.706 14.7488 102.706 15.0669ZM95.6982 9.16317V8.56392C95.6982 8.13482 95.787 7.74087 95.9645 7.38206C96.1458 7.02325 96.4084 6.73656 96.7525 6.52202C97.1002 6.30747 97.52 6.2002 98.012 6.2002C98.5151 6.2002 98.9368 6.30747 99.2771 6.52202C99.6174 6.73656 99.8745 7.02325 100.048 7.38206C100.222 7.74087 100.309 8.13482 100.309 8.56392V9.16317C100.309 9.59227 100.22 9.98622 100.043 10.345C99.869 10.7002 99.61 10.9868 99.266 11.2051C98.9257 11.4196 98.5077 11.5269 98.012 11.5269C97.5089 11.5269 97.0854 11.4196 96.7414 11.2051C96.401 10.9868 96.1421 10.7002 95.9645 10.345C95.787 9.98622 95.6982 9.59227 95.6982 9.16317ZM96.9966 8.56392V9.16317C96.9966 9.4813 97.0706 9.76983 97.2185 10.0288C97.3702 10.2877 97.6347 10.4172 98.012 10.4172C98.3819 10.4172 98.6408 10.2877 98.7888 10.0288C98.9405 9.76983 99.0163 9.4813 99.0163 9.16317V8.56392C99.0163 8.2458 98.9442 7.95727 98.7999 7.69833C98.6556 7.43939 98.393 7.30992 98.012 7.30992C97.6421 7.30992 97.3795 7.43939 97.2241 7.69833C97.0724 7.95727 96.9966 8.2458 96.9966 8.56392ZM96.2253 17.7969L104.038 6.43324H105.364L97.5515 17.7969H96.2253Z" fill="#7C7E8C"/>
</svg>
